erDiagram
    direction TB

    AUX_TABLE_2 {
    string id PK
    string tenant_id
    string user_id
    string order_id
    string random_code
    string created_at
    }

    AUX_TABLE_20 {
    string id PK
    string tenant_id
    string user_id
    string order_id
    string random_code
    string created_at
    }

    AUX_TABLE_21 {
    string id PK
    string tenant_id
    string user_id
    string order_id
    string random_code
    string created_at
    }

    AUX_TABLE_22 {
    string id PK
    string tenant_id
    string user_id
    string order_id
    string random_code
    string created_at
    }

    AUX_TABLE_23 {
    string id PK
    string tenant_id
    string user_id
    string order_id
    string random_code
    string created_at
    }

    AUX_TABLE_24 {
    string id PK
    string tenant_id
    string user_id
    string order_id
    string random_code
    string created_at
    }

    AUX_TABLE_25 {
    string id PK
    string tenant_id
    string user_id
    string order_id
    string random_code
    string created_at
    }

    AUX_TABLE_26 {
    string id PK
    string tenant_id
    string user_id
    string order_id
    string random_code
    string created_at
    }

    AUX_TABLE_27 {
    string id PK
    string tenant_id
    string user_id
    string order_id
    string random_code
    string created_at
    }

    AUX_TABLE_28 {
    string id PK
    string tenant_id
    string user_id
    string order_id
    string random_code
    string created_at
    }

    AUX_TABLE_29 {
    string id PK
    string tenant_id
    string user_id
    string order_id
    string random_code
    string created_at
    }

    AUX_TABLE_3 {
    string id PK
    string tenant_id
    string user_id
    string order_id
    string random_code
    string created_at
    }

    AUX_TABLE_30 {
    string id PK
    string tenant_id
    string user_id
    string order_id
    string random_code
    string created_at
    }

    AUX_TABLE_31 {
    string id PK
    string tenant_id
    string user_id
    string order_id
    string random_code
    string created_at
    }

    AUX_TABLE_32 {
    string id PK
    string tenant_id
    string user_id
    string order_id
    string random_code
    string created_at
    }

    AUX_TABLE_33 {
    string id PK
    string tenant_id
    string user_id
    string order_id
    string random_code
    string created_at
    }

    AUX_TABLE_34 {
    string id PK
    string tenant_id
    string user_id
    string order_id
    string random_code
    string created_at
    }

    AUX_TABLE_35 {
    string id PK
    string tenant_id
    string user_id
    string order_id
    string random_code
    string created_at
    }

    AUX_TABLE_36 {
    string id PK
    string tenant_id
    string user_id
    string order_id
    string random_code
    string created_at
    }

    AUX_TABLE_37 {
    string id PK
    string tenant_id
    string user_id
    string order_id
    string random_code
    string created_at
    }

    AUX_TABLE_2 ||--o{ TENANTS : tenant_id
    AUX_TABLE_2 ||--o{ USER_ROLES : user_id
    AUX_TABLE_2 ||--o{ USERS : user_id
    AUX_TABLE_2 ||--o{ ORDERS : order_id
    AUX_TABLE_20 ||--o{ TENANTS : tenant_id
    AUX_TABLE_20 ||--o{ USER_ROLES : user_id
    AUX_TABLE_20 ||--o{ USERS : user_id
    AUX_TABLE_20 ||--o{ ORDERS : order_id
    AUX_TABLE_21 ||--o{ TENANTS : tenant_id
    AUX_TABLE_21 ||--o{ USER_ROLES : user_id
    AUX_TABLE_21 ||--o{ USERS : user_id
    AUX_TABLE_21 ||--o{ ORDERS : order_id
    AUX_TABLE_22 ||--o{ TENANTS : tenant_id
    AUX_TABLE_22 ||--o{ USER_ROLES : user_id
    AUX_TABLE_22 ||--o{ USERS : user_id
    AUX_TABLE_22 ||--o{ ORDERS : order_id
    AUX_TABLE_23 ||--o{ TENANTS : tenant_id
    AUX_TABLE_23 ||--o{ USER_ROLES : user_id
    AUX_TABLE_23 ||--o{ USERS : user_id
    AUX_TABLE_23 ||--o{ ORDERS : order_id
    AUX_TABLE_24 ||--o{ TENANTS : tenant_id
    AUX_TABLE_24 ||--o{ USER_ROLES : user_id
    AUX_TABLE_24 ||--o{ USERS : user_id
    AUX_TABLE_24 ||--o{ ORDERS : order_id
    AUX_TABLE_25 ||--o{ TENANTS : tenant_id
    AUX_TABLE_25 ||--o{ USER_ROLES : user_id
    AUX_TABLE_25 ||--o{ USERS : user_id
    AUX_TABLE_25 ||--o{ ORDERS : order_id
    AUX_TABLE_26 ||--o{ TENANTS : tenant_id
    AUX_TABLE_26 ||--o{ USER_ROLES : user_id
    AUX_TABLE_26 ||--o{ USERS : user_id
    AUX_TABLE_26 ||--o{ ORDERS : order_id
    AUX_TABLE_27 ||--o{ TENANTS : tenant_id
    AUX_TABLE_27 ||--o{ USER_ROLES : user_id
    AUX_TABLE_27 ||--o{ USERS : user_id
    AUX_TABLE_27 ||--o{ ORDERS : order_id
    AUX_TABLE_28 ||--o{ TENANTS : tenant_id
    AUX_TABLE_28 ||--o{ USER_ROLES : user_id
    AUX_TABLE_28 ||--o{ USERS : user_id
    AUX_TABLE_28 ||--o{ ORDERS : order_id
    AUX_TABLE_29 ||--o{ TENANTS : tenant_id
    AUX_TABLE_29 ||--o{ USER_ROLES : user_id
    AUX_TABLE_29 ||--o{ USERS : user_id
    AUX_TABLE_29 ||--o{ ORDERS : order_id
    AUX_TABLE_3 ||--o{ TENANTS : tenant_id
    AUX_TABLE_3 ||--o{ USER_ROLES : user_id
    AUX_TABLE_3 ||--o{ USERS : user_id
    AUX_TABLE_3 ||--o{ ORDERS : order_id
    AUX_TABLE_30 ||--o{ TENANTS : tenant_id
    AUX_TABLE_30 ||--o{ USER_ROLES : user_id
    AUX_TABLE_30 ||--o{ USERS : user_id
    AUX_TABLE_30 ||--o{ ORDERS : order_id
    AUX_TABLE_31 ||--o{ TENANTS : tenant_id
    AUX_TABLE_31 ||--o{ USER_ROLES : user_id
    AUX_TABLE_31 ||--o{ USERS : user_id
    AUX_TABLE_31 ||--o{ ORDERS : order_id
    AUX_TABLE_32 ||--o{ TENANTS : tenant_id
    AUX_TABLE_32 ||--o{ USER_ROLES : user_id
    AUX_TABLE_32 ||--o{ USERS : user_id
    AUX_TABLE_32 ||--o{ ORDERS : order_id
    AUX_TABLE_33 ||--o{ TENANTS : tenant_id
    AUX_TABLE_33 ||--o{ USER_ROLES : user_id
    AUX_TABLE_33 ||--o{ USERS : user_id
    AUX_TABLE_33 ||--o{ ORDERS : order_id
    AUX_TABLE_34 ||--o{ TENANTS : tenant_id
    AUX_TABLE_34 ||--o{ USER_ROLES : user_id
    AUX_TABLE_34 ||--o{ USERS : user_id
    AUX_TABLE_34 ||--o{ ORDERS : order_id
    AUX_TABLE_35 ||--o{ TENANTS : tenant_id
    AUX_TABLE_35 ||--o{ USER_ROLES : user_id
    AUX_TABLE_35 ||--o{ USERS : user_id
    AUX_TABLE_35 ||--o{ ORDERS : order_id
    AUX_TABLE_36 ||--o{ TENANTS : tenant_id
    AUX_TABLE_36 ||--o{ USER_ROLES : user_id
    AUX_TABLE_36 ||--o{ USERS : user_id
    AUX_TABLE_36 ||--o{ ORDERS : order_id
    AUX_TABLE_37 ||--o{ TENANTS : tenant_id
    AUX_TABLE_37 ||--o{ USER_ROLES : user_id
    AUX_TABLE_37 ||--o{ USERS : user_id
    AUX_TABLE_37 ||--o{ ORDERS : order_id
    AUX_TABLE_38 ||--o{ TENANTS : tenant_id
    AUX_TABLE_38 ||--o{ USER_ROLES : user_id
    AUX_TABLE_38 ||--o{ USERS : user_id
    AUX_TABLE_38 ||--o{ ORDERS : order_id
    AUX_TABLE_39 ||--o{ TENANTS : tenant_id
    AUX_TABLE_39 ||--o{ USER_ROLES : user_id
    AUX_TABLE_39 ||--o{ USERS : user_id
    AUX_TABLE_39 ||--o{ ORDERS : order_id
