erDiagram
    direction TB

    AUX_TABLE_38 {
    string id PK
    string tenant_id
    string user_id
    string order_id
    string random_code
    string created_at
    }

    AUX_TABLE_39 {
    string id PK
    string tenant_id
    string user_id
    string order_id
    string random_code
    string created_at
    }

    AUX_TABLE_4 {
    string id PK
    string tenant_id
    string user_id
    string order_id
    string random_code
    string created_at
    }

    AUX_TABLE_40 {
    string id PK
    string tenant_id
    string user_id
    string order_id
    string random_code
    string created_at
    }

    AUX_TABLE_41 {
    string id PK
    string tenant_id
    string user_id
    string order_id
    string random_code
    string created_at
    }

    AUX_TABLE_42 {
    string id PK
    string tenant_id
    string user_id
    string order_id
    string random_code
    string created_at
    }

    AUX_TABLE_43 {
    string id PK
    string tenant_id
    string user_id
    string order_id
    string random_code
    string created_at
    }

    AUX_TABLE_44 {
    string id PK
    string tenant_id
    string user_id
    string order_id
    string random_code
    string created_at
    }

    AUX_TABLE_45 {
    string id PK
    string tenant_id
    string user_id
    string order_id
    string random_code
    string created_at
    }

    AUX_TABLE_46 {
    string id PK
    string tenant_id
    string user_id
    string order_id
    string random_code
    string created_at
    }

    AUX_TABLE_47 {
    string id PK
    string tenant_id
    string user_id
    string order_id
    string random_code
    string created_at
    }

    AUX_TABLE_48 {
    string id PK
    string tenant_id
    string user_id
    string order_id
    string random_code
    string created_at
    }

    AUX_TABLE_49 {
    string id PK
    string tenant_id
    string user_id
    string order_id
    string random_code
    string created_at
    }

    AUX_TABLE_5 {
    string id PK
    string tenant_id
    string user_id
    string order_id
    string random_code
    string created_at
    }

    AUX_TABLE_50 {
    string id PK
    string tenant_id
    string user_id
    string order_id
    string random_code
    string created_at
    }

    AUX_TABLE_6 {
    string id PK
    string tenant_id
    string user_id
    string order_id
    string random_code
    string created_at
    }

    AUX_TABLE_7 {
    string id PK
    string tenant_id
    string user_id
    string order_id
    string random_code
    string created_at
    }

    AUX_TABLE_8 {
    string id PK
    string tenant_id
    string user_id
    string order_id
    string random_code
    string created_at
    }

    AUX_TABLE_9 {
    string id PK
    string tenant_id
    string user_id
    string order_id
    string random_code
    string created_at
    }

    AUX_TABLE_38 ||--o{ TENANTS : tenant_id
    AUX_TABLE_38 ||--o{ USER_ROLES : user_id
    AUX_TABLE_38 ||--o{ USERS : user_id
    AUX_TABLE_38 ||--o{ ORDERS : order_id
    AUX_TABLE_39 ||--o{ TENANTS : tenant_id
    AUX_TABLE_39 ||--o{ USER_ROLES : user_id
    AUX_TABLE_39 ||--o{ USERS : user_id
    AUX_TABLE_39 ||--o{ ORDERS : order_id
    AUX_TABLE_4 ||--o{ TENANTS : tenant_id
    AUX_TABLE_4 ||--o{ USER_ROLES : user_id
    AUX_TABLE_4 ||--o{ USERS : user_id
    AUX_TABLE_4 ||--o{ ORDERS : order_id
    AUX_TABLE_40 ||--o{ TENANTS : tenant_id
    AUX_TABLE_40 ||--o{ USER_ROLES : user_id
    AUX_TABLE_40 ||--o{ USERS : user_id
    AUX_TABLE_40 ||--o{ ORDERS : order_id
    AUX_TABLE_41 ||--o{ TENANTS : tenant_id
    AUX_TABLE_41 ||--o{ USER_ROLES : user_id
    AUX_TABLE_41 ||--o{ USERS : user_id
    AUX_TABLE_41 ||--o{ ORDERS : order_id
    AUX_TABLE_42 ||--o{ TENANTS : tenant_id
    AUX_TABLE_42 ||--o{ USER_ROLES : user_id
    AUX_TABLE_42 ||--o{ USERS : user_id
    AUX_TABLE_42 ||--o{ ORDERS : order_id
    AUX_TABLE_43 ||--o{ TENANTS : tenant_id
    AUX_TABLE_43 ||--o{ USER_ROLES : user_id
    AUX_TABLE_43 ||--o{ USERS : user_id
    AUX_TABLE_43 ||--o{ ORDERS : order_id
    AUX_TABLE_44 ||--o{ TENANTS : tenant_id
    AUX_TABLE_44 ||--o{ USER_ROLES : user_id
    AUX_TABLE_44 ||--o{ USERS : user_id
    AUX_TABLE_44 ||--o{ ORDERS : order_id
    AUX_TABLE_45 ||--o{ TENANTS : tenant_id
    AUX_TABLE_45 ||--o{ USER_ROLES : user_id
    AUX_TABLE_45 ||--o{ USERS : user_id
    AUX_TABLE_45 ||--o{ ORDERS : order_id
    AUX_TABLE_46 ||--o{ TENANTS : tenant_id
    AUX_TABLE_46 ||--o{ USER_ROLES : user_id
    AUX_TABLE_46 ||--o{ USERS : user_id
    AUX_TABLE_46 ||--o{ ORDERS : order_id
    AUX_TABLE_47 ||--o{ TENANTS : tenant_id
    AUX_TABLE_47 ||--o{ USER_ROLES : user_id
    AUX_TABLE_47 ||--o{ USERS : user_id
    AUX_TABLE_47 ||--o{ ORDERS : order_id
    AUX_TABLE_48 ||--o{ TENANTS : tenant_id
    AUX_TABLE_48 ||--o{ USER_ROLES : user_id
    AUX_TABLE_48 ||--o{ USERS : user_id
    AUX_TABLE_48 ||--o{ ORDERS : order_id
    AUX_TABLE_49 ||--o{ TENANTS : tenant_id
    AUX_TABLE_49 ||--o{ USER_ROLES : user_id
    AUX_TABLE_49 ||--o{ USERS : user_id
    AUX_TABLE_49 ||--o{ ORDERS : order_id
    AUX_TABLE_5 ||--o{ TENANTS : tenant_id
    AUX_TABLE_5 ||--o{ USER_ROLES : user_id
    AUX_TABLE_5 ||--o{ USERS : user_id
    AUX_TABLE_5 ||--o{ ORDERS : order_id
    AUX_TABLE_50 ||--o{ TENANTS : tenant_id
    AUX_TABLE_50 ||--o{ USER_ROLES : user_id
    AUX_TABLE_50 ||--o{ USERS : user_id
    AUX_TABLE_50 ||--o{ ORDERS : order_id
    AUX_TABLE_6 ||--o{ TENANTS : tenant_id
    AUX_TABLE_6 ||--o{ USER_ROLES : user_id
    AUX_TABLE_6 ||--o{ USERS : user_id
    AUX_TABLE_6 ||--o{ ORDERS : order_id
    AUX_TABLE_7 ||--o{ TENANTS : tenant_id
    AUX_TABLE_7 ||--o{ USER_ROLES : user_id
    AUX_TABLE_7 ||--o{ USERS : user_id
    AUX_TABLE_7 ||--o{ ORDERS : order_id
    AUX_TABLE_8 ||--o{ TENANTS : tenant_id
    AUX_TABLE_8 ||--o{ USER_ROLES : user_id
    AUX_TABLE_8 ||--o{ USERS : user_id
    AUX_TABLE_8 ||--o{ ORDERS : order_id
    AUX_TABLE_9 ||--o{ TENANTS : tenant_id
    AUX_TABLE_9 ||--o{ USER_ROLES : user_id
    AUX_TABLE_9 ||--o{ USERS : user_id
    AUX_TABLE_9 ||--o{ ORDERS : order_id
